<?xml version="1.0" encoding="UTF-8" standalone="no"?>
<!-- Creator: CorelDRAW -->

<svg
   xml:space="preserve"
   width="0.68128222in"
   height="0.30752814in"
   style="clip-rule:evenodd;fill-rule:evenodd;image-rendering:optimizeQuality;shape-rendering:geometricPrecision;text-rendering:geometricPrecision"
   viewBox="0 0 1.9276063 0.46765496"
   version="1.1"
   id="svg77"
   sodipodi:docname="logo.svg"
   inkscape:export-filename="logo.svg"
   inkscape:export-xdpi="96"
   inkscape:export-ydpi="96"
   inkscape:version="1.4 (86a8ad7, 2024-10-11)"
   xmlns:inkscape="http://www.inkscape.org/namespaces/inkscape"
   xmlns:sodipodi="http://sodipodi.sourceforge.net/DTD/sodipodi-0.dtd"
   xmlns="http://www.w3.org/2000/svg"
   xmlns:svg="http://www.w3.org/2000/svg"><sodipodi:namedview
   id="namedview1"
   pagecolor="#ffffff"
   bordercolor="#000000"
   borderopacity="0.25"
   inkscape:showpageshadow="2"
   inkscape:pageopacity="0.0"
   inkscape:pagecheckerboard="0"
   inkscape:deskcolor="#d1d1d1"
   inkscape:document-units="in"
   inkscape:zoom="27.96"
   inkscape:cx="31.491416"
   inkscape:cy="18.758941"
   inkscape:window-width="3440"
   inkscape:window-height="1406"
   inkscape:window-x="-11"
   inkscape:window-y="-11"
   inkscape:window-maximized="1"
   inkscape:current-layer="Layer_x0020_1"
   showgrid="false" />
 <defs
   id="defs1"><style
     type="text/css"
     id="style1">
   <![CDATA[
    .str2 {stroke:#BB2921;stroke-width:0.00280386}
    .str1 {stroke:#BB2921;stroke-width:0.0274867;stroke-linecap:round;stroke-linejoin:round}
    .str0 {stroke:#BB2921;stroke-width:0.0275198;stroke-linecap:round;stroke-linejoin:round}
    .fil3 {fill:none}
    .fil0 {fill:#BB2921}
    .fil2 {fill:white}
    .fil1 {fill:#EBDDAA}
    .fil4 {fill:#BB2921;fill-rule:nonzero}
   ]]>
  </style></defs>
 <g
   id="Layer_x0020_1"
   transform="translate(-0.4354118,-0.65434504)"
   inkscape:label="Layer 1">
  <metadata
   id="CorelCorpID_0Corel-Layer" />
  <path
   class="fil0"
   d="m 0.52077384,1.2018254 c 0,0 -0.0674583,-0.081378 -0.0813782,-0.119926 0,0 0.0481845,-0.038548 0.142412,-0.051397 0.0407149,0.036535 0.0749205,0.07722 0.0919534,0.116397 0.003775,0.00869 0.0315858,0.015797 0.0335544,0.024278 0.002193,0.00944 -0.0156347,0.020838 -0.0220151,0.029231 z"
   id="path1"
   style="fill:#02046c;fill-opacity:1" />
  <path
   class="fil1"
   d="m 0.70280784,1.1914714 c 0,0 -0.118859,-0.053895 -0.155265,-0.30124202 0,0 0.208144,-0.0455609 0.333755,0.0982198 z"
   id="path2"
   style="fill:#95cdea;fill-opacity:1" />
  <path
   class="fil0"
   d="m 0.82594584,1.0711924 c 0,0 -0.104935,-0.074954 -0.0813782,-0.24413802 0,0 0.119083,0.002425 0.21589397,0.131038 L 0.83665364,1.0819004 Z"
   id="path3"
   style="fill:#02046c;fill-opacity:1" />
  <path
   id="polygon3"
   style="fill:#02046c;fill-opacity:1"
   class="fil0"
   d="M 1.4004008 -3.9001355e-06 L 1.0399934 0.3745643 L 0.67964343 0.7491325 L 1.1465441 0.7491325 C 1.1448968 0.73739978 1.1440113 0.72546216 1.1440113 0.7132702 C 1.1440113 0.5716792 1.258809 0.45688073 1.4004008 0.45688066 C 1.5419918 0.45688066 1.6567328 0.5716792 1.6567328 0.7132702 C 1.6567328 0.72545561 1.655843 0.7374041 1.6542 0.7491325 L 2.1211582 0.7491325 L 1.7607508 0.3745643 L 1.4004008 -3.9001355e-06 z "
   transform="translate(0.00398384,0.45127738)" />
  <path
   id="polygon4"
   style="fill:#95cdea;fill-opacity:1"
   class="fil1"
   d="M 1.4004008 0.17343609 L 1.1234034 0.46125551 L 0.84652114 0.7491325 L 1.1465441 0.7491325 C 1.1448968 0.73739978 1.1440113 0.72546216 1.1440113 0.7132702 C 1.1440113 0.5716792 1.258809 0.45688073 1.4004008 0.45688066 C 1.5419918 0.45688066 1.6567328 0.5716792 1.6567328 0.7132702 C 1.6567328 0.72545561 1.655843 0.7374041 1.6542 0.7491325 L 1.9542805 0.7491325 L 1.6773407 0.46125551 L 1.4004008 0.17343609 z "
   transform="translate(0.00398384,0.45127738)" />
  
  
  <g
   id="g70"
   style="fill:#0857ac;fill-opacity:1"
   transform="translate(0.00398384,0.45127738)">
   <polygon
   class="fil0"
   points="1.32186,0.645422 1.3066,0.645422 1.3066,0.621136 1.32186,0.621136 "
   id="polygon27"
   style="fill:#0857ac;fill-opacity:1" />
   <polygon
   class="fil0"
   points="1.34928,0.645422 1.33402,0.645422 1.33402,0.621136 1.34928,0.621136 "
   id="polygon28"
   style="fill:#0857ac;fill-opacity:1" />
   <polygon
   class="fil0"
   points="1.3767,0.645422 1.36143,0.645422 1.36143,0.621136 1.3767,0.621136 "
   id="polygon29"
   style="fill:#0857ac;fill-opacity:1" />
   <polygon
   class="fil0"
   points="1.40411,0.645422 1.38885,0.645422 1.38885,0.621136 1.40411,0.621136 "
   id="polygon30"
   style="fill:#0857ac;fill-opacity:1" />
   <polygon
   class="fil0"
   points="1.32186,0.685835 1.3066,0.685835 1.3066,0.661553 1.32186,0.661553 "
   id="polygon31"
   style="fill:#0857ac;fill-opacity:1" />
   <polygon
   class="fil0"
   points="1.34928,0.685835 1.33402,0.685835 1.33402,0.661553 1.34928,0.661553 "
   id="polygon32"
   style="fill:#0857ac;fill-opacity:1" />
   <polygon
   class="fil0"
   points="1.3767,0.685835 1.36143,0.685835 1.36143,0.661553 1.3767,0.661553 "
   id="polygon33"
   style="fill:#0857ac;fill-opacity:1" />
   <polygon
   class="fil0"
   points="1.40411,0.685835 1.38885,0.685835 1.38885,0.661553 1.40411,0.661553 "
   id="polygon34"
   style="fill:#0857ac;fill-opacity:1" />
   <polygon
   class="fil0"
   points="1.32186,0.726252 1.3066,0.726252 1.3066,0.701966 1.32186,0.701966 "
   id="polygon35"
   style="fill:#0857ac;fill-opacity:1" />
   <polygon
   class="fil0"
   points="1.34928,0.726252 1.33402,0.726252 1.33402,0.701966 1.34928,0.701966 "
   id="polygon36"
   style="fill:#0857ac;fill-opacity:1" />
   <polygon
   class="fil0"
   points="1.3767,0.726252 1.36143,0.726252 1.36143,0.701966 1.3767,0.701966 "
   id="polygon37"
   style="fill:#0857ac;fill-opacity:1" />
   <polygon
   class="fil0"
   points="1.40411,0.726252 1.38885,0.726252 1.38885,0.701966 1.40411,0.701966 "
   id="polygon38"
   style="fill:#0857ac;fill-opacity:1" />
   <polygon
   class="fil0"
   points="1.32186,0.766665 1.3066,0.766665 1.3066,0.742383 1.32186,0.742383 "
   id="polygon39"
   style="fill:#0857ac;fill-opacity:1" />
   <polygon
   class="fil0"
   points="1.34928,0.766665 1.33402,0.766665 1.33402,0.742383 1.34928,0.742383 "
   id="polygon40"
   style="fill:#0857ac;fill-opacity:1" />
   <polygon
   class="fil0"
   points="1.3767,0.766665 1.36143,0.766665 1.36143,0.742383 1.3767,0.742383 "
   id="polygon41"
   style="fill:#0857ac;fill-opacity:1" />
   <polygon
   class="fil0"
   points="1.40411,0.766665 1.38885,0.766665 1.38885,0.742383 1.40411,0.742383 "
   id="polygon42"
   style="fill:#0857ac;fill-opacity:1" />
   <polygon
   class="fil0"
   points="1.32186,0.807085 1.3066,0.807085 1.3066,0.782796 1.32186,0.782796 "
   id="polygon43"
   style="fill:#0857ac;fill-opacity:1" />
   <polygon
   class="fil0"
   points="1.34928,0.807085 1.33402,0.807085 1.33402,0.782796 1.34928,0.782796 "
   id="polygon44"
   style="fill:#0857ac;fill-opacity:1" />
   <polygon
   class="fil0"
   points="1.3767,0.807085 1.36143,0.807085 1.36143,0.782796 1.3767,0.782796 "
   id="polygon45"
   style="fill:#0857ac;fill-opacity:1" />
   <polygon
   class="fil0"
   points="1.40411,0.807085 1.38885,0.807085 1.38885,0.782796 1.40411,0.782796 "
   id="polygon46"
   style="fill:#0857ac;fill-opacity:1" />
   <polygon
   class="fil0"
   points="1.32186,0.847495 1.3066,0.847495 1.3066,0.823217 1.32186,0.823217 "
   id="polygon47"
   style="fill:#0857ac;fill-opacity:1" />
   <polygon
   class="fil0"
   points="1.36985,0.864042 1.34087,0.864042 1.34087,0.821094 1.36985,0.821094 "
   id="polygon48"
   style="fill:#0857ac;fill-opacity:1" />
   <polygon
   class="fil0"
   points="1.40411,0.847495 1.38885,0.847495 1.38885,0.823217 1.40411,0.823217 "
   id="polygon49"
   style="fill:#0857ac;fill-opacity:1" />
   <polygon
   class="fil0"
   points="1.47224,0.69418 1.45699,0.69418 1.45699,0.678332 1.47224,0.678332 "
   id="polygon50"
   style="fill:#0857ac;fill-opacity:1" />
   <polygon
   class="fil0"
   points="1.4979,0.69418 1.48263,0.69418 1.48263,0.678332 1.4979,0.678332 "
   id="polygon51"
   style="fill:#0857ac;fill-opacity:1" />
   <polygon
   class="fil0"
   points="1.52355,0.69418 1.50829,0.69418 1.50829,0.678332 1.52355,0.678332 "
   id="polygon52"
   style="fill:#0857ac;fill-opacity:1" />
   <polygon
   class="fil0"
   points="1.47224,0.720331 1.45699,0.720331 1.45699,0.704491 1.47224,0.704491 "
   id="polygon53"
   style="fill:#0857ac;fill-opacity:1" />
   <polygon
   class="fil0"
   points="1.4979,0.720331 1.48263,0.720331 1.48263,0.704491 1.4979,0.704491 "
   id="polygon54"
   style="fill:#0857ac;fill-opacity:1" />
   <polygon
   class="fil0"
   points="1.52355,0.720331 1.50829,0.720331 1.50829,0.704491 1.52355,0.704491 "
   id="polygon55"
   style="fill:#0857ac;fill-opacity:1" />
   <polygon
   class="fil0"
   points="1.47224,0.74649 1.45699,0.74649 1.45699,0.730649 1.47224,0.730649 "
   id="polygon56"
   style="fill:#0857ac;fill-opacity:1" />
   <polygon
   class="fil0"
   points="1.4979,0.74649 1.48263,0.74649 1.48263,0.730649 1.4979,0.730649 "
   id="polygon57"
   style="fill:#0857ac;fill-opacity:1" />
   <polygon
   class="fil0"
   points="1.52355,0.74649 1.50829,0.74649 1.50829,0.730649 1.52355,0.730649 "
   id="polygon58"
   style="fill:#0857ac;fill-opacity:1" />
   <polygon
   class="fil0"
   points="1.47224,0.772648 1.45699,0.772648 1.45699,0.756804 1.47224,0.756804 "
   id="polygon59"
   style="fill:#0857ac;fill-opacity:1" />
   <polygon
   class="fil0"
   points="1.4979,0.772648 1.48263,0.772648 1.48263,0.756804 1.4979,0.756804 "
   id="polygon60"
   style="fill:#0857ac;fill-opacity:1" />
   <polygon
   class="fil0"
   points="1.52355,0.772648 1.50829,0.772648 1.50829,0.756804 1.52355,0.756804 "
   id="polygon61"
   style="fill:#0857ac;fill-opacity:1" />
   <polygon
   class="fil0"
   points="1.47224,0.798806 1.45699,0.798806 1.45699,0.782962 1.47224,0.782962 "
   id="polygon62"
   style="fill:#0857ac;fill-opacity:1" />
   <polygon
   class="fil0"
   points="1.4979,0.798806 1.48263,0.798806 1.48263,0.782962 1.4979,0.782962 "
   id="polygon63"
   style="fill:#0857ac;fill-opacity:1" />
   <polygon
   class="fil0"
   points="1.52355,0.798806 1.50829,0.798806 1.50829,0.782962 1.52355,0.782962 "
   id="polygon64"
   style="fill:#0857ac;fill-opacity:1" />
   <polygon
   class="fil0"
   points="1.47224,0.824957 1.45699,0.824957 1.45699,0.809117 1.47224,0.809117 "
   id="polygon65"
   style="fill:#0857ac;fill-opacity:1" />
   <polygon
   class="fil0"
   points="1.4979,0.824957 1.48263,0.824957 1.48263,0.809117 1.4979,0.809117 "
   id="polygon66"
   style="fill:#0857ac;fill-opacity:1" />
   <polygon
   class="fil0"
   points="1.52355,0.824957 1.50829,0.824957 1.50829,0.809117 1.52355,0.809117 "
   id="polygon67"
   style="fill:#0857ac;fill-opacity:1" />
   <polygon
   class="fil0"
   points="1.47224,0.851116 1.45699,0.851116 1.45699,0.835271 1.47224,0.835271 "
   id="polygon68"
   style="fill:#0857ac;fill-opacity:1" />
   <polygon
   class="fil0"
   points="1.4979,0.851116 1.48263,0.851116 1.48263,0.835271 1.4979,0.835271 "
   id="polygon69"
   style="fill:#0857ac;fill-opacity:1" />
   <polygon
   class="fil0"
   points="1.52355,0.851116 1.50829,0.851116 1.50829,0.835271 1.52355,0.835271 "
   id="polygon70"
   style="fill:#0857ac;fill-opacity:1" />
  </g>
  <path
   class="fil0"
   d="m 2.2856238,1.2004094 c 0,0 0.067458,-0.081378 0.081378,-0.119926 0,0 -0.048185,-0.038544 -0.142412,-0.051397 -0.040715,0.036535 -0.074924,0.07722 -0.091953,0.116397 -0.00378,0.00869 -0.031586,0.0158 -0.033558,0.024278 -0.00219,0.00943 0.02235,0.021629 0.022696,0.030647 z"
   id="path70"
   style="fill:#02046c;fill-opacity:1" />
  <path
   class="fil1"
   d="m 2.1035938,1.1900544 c 0,0 0.118859,-0.053892 0.155265,-0.30124202 0,0 -0.208144,-0.0455572 -0.333755,0.0982198 z"
   id="path71"
   style="fill:#95cdea;fill-opacity:1" />
  <path
   class="fil0"
   d="m 1.9804538,1.0697754 c 0,0 0.104935,-0.0749536 0.081378,-0.24413802 0,0 -0.119083,0.002425 -0.215897,0.131038 l 0.123811,0.12380802 z"
   id="path72"
   style="fill:#02046c;fill-opacity:1" />
  <polygon
   class="fil3 str2"
   points="1.43704,0.868712 1.27368,0.868712 1.27368,0.607559 1.43704,0.607559 "
   id="polygon72"
   transform="translate(0.00398384,0.45127738)"
   style="stroke:#02046c;stroke-opacity:1" />
  <polygon
   class="fil3 str2"
   points="1.43704,0.868712 1.54783,0.868712 1.54783,0.654477 1.43704,0.654477 "
   id="polygon73"
   transform="translate(0.00398384,0.45127738)"
   style="stroke:#02046c;stroke-opacity:1" />
  <polygon
   class="fil1 str2"
   points="1.31777,0.573769 1.33656,0.554245 1.35536,0.534706 1.37415,0.554245 1.39294,0.573769 1.35536,0.573769 "
   id="polygon74"
   style="fill:#95cdea;fill-opacity:1;stroke:#02046c;stroke-opacity:1"
   transform="translate(0.00398384,0.45127738)" />
  <polygon
   class="fil3 str2"
   points="1.4133,0.575903 1.29742,0.575903 1.29742,0.607559 1.4133,0.607559 "
   id="polygon75"
   style="fill:none;stroke:#02046c;stroke-opacity:1"
   transform="translate(0.00398384,0.45127738)" />
  <polygon
   class="fil1 str2"
   points="1.45848,0.623959 1.47726,0.604431 1.49605,0.584907 1.51484,0.604431 1.53365,0.623959 1.49605,0.623959 "
   id="polygon76"
   style="fill:#95cdea;fill-opacity:1;stroke:#02046c;stroke-opacity:1"
   transform="translate(0.00398384,0.45127738)" />
  <polygon
   class="fil3 str2"
   points="1.45442,0.627624 1.53768,0.627624 1.53768,0.654477 1.45442,0.654477 "
   id="polygon77"
   style="fill:none;stroke-width:0.00278482;stroke-dasharray:none;stroke:#02046c;stroke-opacity:1"
   transform="translate(0.00398384,0.45127738)" />
 </g>
</svg>
